<?xml version="1.0" encoding="UTF-8"?><svg id="Camada_2" xmlns="http://www.w3.org/2000/svg" viewBox="0 0 531.44 280.01"><defs><style>.cls-1{fill:#fff;}.cls-2{fill:#00c4ff;}</style></defs><g id="Camada_2-2"><g id="Camada_1-2"><g><rect class="cls-1" y="95.66" width="77.87" height="77.7"/><rect class="cls-1" x="96.04" y="0" width="77.87" height="77.7"/><polygon class="cls-1" points="279.5 95.66 96.04 95.66 96.04 172.62 96.04 173.35 96.04 280 173.91 280 173.91 173.35 279.5 173.35 279.5 95.66"/><path class="cls-2" d="m439.07,95.66h-141.59c0,42.91,34.86,77.7,77.87,77.7h60.69c7.59,0,14.5,5.45,15.26,12.98.87,8.67-5.93,15.97-14.43,15.97h-139.39v77.7h141.59c51.02,0,92.37-41.27,92.37-92.17h0c0-50.91-41.36-92.17-92.37-92.17h0Z"/><path class="cls-2" d="m453.49,77.7C496.49,77.7,531.35,42.91,531.35,0h-157.89c-42.13,1-75.98,35.39-75.98,77.7h156.01Z"/><path class="cls-2" d="m279.07,77.7c0-24.86,9.59-48.34,27-66.11,4.24-4.33,8.84-8.2,13.72-11.59h-145.88v77.7h105.16Z"/></g></g></g></svg>