<?xml version="1.0" encoding="UTF-8"?><svg id="Camada_2" xmlns="http://www.w3.org/2000/svg" viewBox="0 0 274.62 39.1"><defs><style>.cls-1{fill:#fff;}.cls-2{fill:#00c4ff;}</style></defs><g id="Camada_2-2"><g id="Camada_1-2"><g><rect class="cls-1" y="13.45" width="10.84" height="10.81"/><rect class="cls-1" x="13.36" y=".13" width="10.84" height="10.81"/><polygon class="cls-1" points="38.89 13.45 13.36 13.45 13.36 24.15 13.36 24.26 13.36 39.1 24.2 39.1 24.2 24.26 38.89 24.26 38.89 13.45"/><path class="cls-2" d="m61.1,13.45h-19.7c0,5.97,4.85,10.81,10.84,10.81h8.45c1.06,0,2.02.76,2.12,1.81.12,1.21-.83,2.22-2.01,2.22h-19.4v10.81h19.7c7.1,0,12.85-5.74,12.85-12.83h0c0-7.08-5.76-12.83-12.85-12.83h0Z"/><path class="cls-2" d="m63.11,10.95c5.98,0,10.83-4.84,10.83-10.81h-21.97c-5.86.14-10.57,4.92-10.57,10.81h21.71Z"/><path class="cls-2" d="m38.83,10.95c0-3.46,1.33-6.73,3.76-9.2.59-.6,1.23-1.14,1.91-1.61h-20.3v10.81h14.63Z"/></g></g><g><path class="cls-1" d="m93.03,8.48v5.47h-3.05V.34h10.87v2.5h-7.82v3.15h7.42v2.5h-7.42Z"/><path class="cls-1" d="m118.25,7.15c0,1.44-.31,2.69-.94,3.77-.63,1.07-1.54,1.91-2.73,2.5-1.19.59-2.6.89-4.24.89s-2.95-.28-4.13-.85c-1.18-.57-2.09-1.39-2.75-2.46-.65-1.07-.98-2.35-.98-3.84s.31-2.69.94-3.77c.63-1.07,1.54-1.91,2.73-2.5,1.19-.59,2.6-.89,4.24-.89s2.95.28,4.13.85c1.18.57,2.09,1.39,2.75,2.46.65,1.07.98,2.35.98,3.84Zm-3.16,0c0-1.47-.41-2.62-1.24-3.43-.83-.81-1.99-1.22-3.49-1.22s-2.64.41-3.47,1.23c-.83.82-1.24,1.96-1.24,3.42s.41,2.62,1.24,3.43c.83.81,1.99,1.22,3.49,1.22s2.64-.41,3.47-1.23c.83-.82,1.24-1.96,1.24-3.42Z"/><path class="cls-1" d="m130.67,13.96l-2.97-5.09h-3.98v5.09h-2.94V.34h6.69c3.8,0,5.7,1.42,5.7,4.25,0,.91-.21,1.68-.64,2.29-.43.61-1.08,1.09-1.95,1.43l3.43,5.64h-3.34Zm-3.43-7.43c1,0,1.74-.16,2.22-.47.48-.31.71-.8.71-1.48s-.23-1.16-.68-1.45c-.45-.29-1.19-.44-2.22-.44h-3.57v3.83h3.53Z"/><path class="cls-1" d="m146.74,13.96l-7.87-9.51v9.51h-2.92V.34h2.78l7.87,9.51V.34h2.92v13.61h-2.78Z"/><path class="cls-1" d="m152.87,13.96V.34h11.4v2.5h-8.35v2.86h7.95v2.5h-7.95v3.26h8.77l-.38,2.5h-11.44Z"/><path class="cls-1" d="m181.26,9.25c-.22,1.61-.94,2.86-2.18,3.74-1.24.88-2.88,1.32-4.91,1.32-1.53,0-2.86-.28-4-.84-1.14-.56-2.03-1.38-2.65-2.46-.62-1.08-.93-2.36-.93-3.85,0-1.41.3-2.65.91-3.73.6-1.07,1.48-1.91,2.62-2.52,1.14-.6,2.49-.91,4.04-.91,3.77,0,6.07,1.56,6.88,4.67l-3.03.36c-.32-.9-.78-1.55-1.38-1.94-.6-.39-1.43-.59-2.47-.59-1.36,0-2.43.41-3.22,1.24-.79.83-1.18,1.96-1.18,3.41s.39,2.6,1.18,3.42c.79.82,1.88,1.23,3.28,1.23,1.13,0,2.02-.21,2.67-.63s1.08-1.06,1.3-1.93h3.09Z"/><path class="cls-1" d="m183.74,13.96V.34h11.4v2.5h-8.35v2.86h7.95v2.5h-7.95v3.26h8.77l-.38,2.5h-11.44Z"/><path class="cls-1" d="m198.09,13.96V.34h6.1c2.61,0,4.59.58,5.96,1.74,1.37,1.16,2.05,2.85,2.05,5.06s-.72,3.85-2.16,5.03c-1.44,1.18-3.49,1.77-6.15,1.77h-5.8Zm5.93-2.54c1.66,0,2.92-.36,3.77-1.09.84-.72,1.27-1.79,1.27-3.2,0-2.83-1.59-4.25-4.77-4.25h-3.16v8.54h2.9Z"/><path class="cls-1" d="m230.03,7.15c0,1.44-.31,2.69-.94,3.77-.63,1.07-1.54,1.91-2.73,2.5-1.19.59-2.6.89-4.24.89s-2.95-.28-4.13-.85c-1.18-.57-2.09-1.39-2.75-2.46-.65-1.07-.98-2.35-.98-3.84s.31-2.69.94-3.77c.63-1.07,1.54-1.91,2.73-2.5,1.19-.59,2.6-.89,4.24-.89s2.95.28,4.13.85c1.18.57,2.09,1.39,2.75,2.46.65,1.07.98,2.35.98,3.84Zm-3.16,0c0-1.47-.41-2.62-1.24-3.43-.83-.81-1.99-1.22-3.49-1.22s-2.64.41-3.47,1.23c-.83.82-1.24,1.96-1.24,3.42s.41,2.62,1.24,3.43c.83.81,1.99,1.22,3.49,1.22s2.64-.41,3.47-1.23c.83-.82,1.24-1.96,1.24-3.42Z"/><path class="cls-1" d="m242.44,13.96l-2.97-5.09h-3.98v5.09h-2.94V.34h6.69c3.8,0,5.7,1.42,5.7,4.25,0,.91-.21,1.68-.64,2.29-.43.61-1.08,1.09-1.95,1.43l3.43,5.64h-3.34Zm-3.43-7.43c1,0,1.74-.16,2.22-.47.48-.31.71-.8.71-1.48s-.23-1.16-.68-1.45c-.45-.29-1.19-.44-2.22-.44h-3.57v3.83h3.53Z"/><path class="cls-1" d="m247.72,13.96V.34h11.4v2.5h-8.35v2.86h7.95v2.5h-7.95v3.26h8.77l-.38,2.5h-11.44Z"/><path class="cls-1" d="m271.32,4.18c-.27-.65-.67-1.12-1.2-1.4s-1.28-.43-2.23-.43c-1.08,0-1.91.13-2.48.4-.57.27-.86.65-.86,1.16s.17.84.52,1.07c.35.23.99.41,1.92.55l2.8.44c1.66.27,2.89.73,3.66,1.4.78.67,1.16,1.59,1.16,2.75,0,1.32-.56,2.35-1.69,3.08-1.12.73-2.73,1.1-4.81,1.1-1.51,0-2.77-.18-3.77-.53-1-.36-1.76-.9-2.29-1.62-.53-.72-.84-1.65-.94-2.76h3.07c.13.89.5,1.54,1.12,1.95.62.41,1.56.62,2.8.62,1.12,0,1.96-.15,2.53-.45.57-.3.85-.74.85-1.32,0-.47-.19-.84-.56-1.11-.38-.27-.97-.46-1.78-.57l-2.29-.32c-1.86-.25-3.21-.71-4.07-1.38s-1.29-1.6-1.29-2.81c0-.81.25-1.52.76-2.12.51-.6,1.25-1.06,2.22-1.38.97-.32,2.13-.49,3.48-.49,1.86,0,3.29.31,4.31.92,1.02.62,1.68,1.59,2,2.91l-2.96.34Z"/><path class="cls-1" d="m89.98,36.83v-13.61h6.1c2.61,0,4.59.58,5.96,1.74,1.37,1.16,2.05,2.85,2.05,5.06s-.72,3.85-2.16,5.03c-1.44,1.18-3.49,1.77-6.15,1.77h-5.8Zm5.93-2.54c1.66,0,2.92-.36,3.77-1.09.85-.72,1.27-1.79,1.27-3.2,0-2.83-1.59-4.25-4.77-4.25h-3.16v8.54h2.9Z"/><path class="cls-1" d="m117.15,36.83l-1.35-3.09h-6.86l-1.33,3.09h-3.15l6.23-13.61h3.45l6.23,13.61h-3.22Zm-4.79-10.96l-2.4,5.45h4.8l-2.4-5.45Z"/><path class="cls-1" d="m136.79,27.05c-.27-.65-.67-1.12-1.2-1.4-.53-.29-1.28-.43-2.23-.43-1.08,0-1.91.13-2.48.4-.57.27-.86.65-.86,1.16s.17.84.52,1.07c.35.23.99.41,1.92.55l2.8.44c1.66.27,2.88.73,3.66,1.4.77.67,1.16,1.59,1.16,2.75,0,1.32-.56,2.35-1.69,3.08-1.12.73-2.73,1.1-4.81,1.1-1.51,0-2.77-.18-3.77-.53-1-.36-1.76-.9-2.29-1.62-.53-.72-.84-1.65-.94-2.76h3.07c.13.89.5,1.54,1.12,1.95.62.41,1.56.62,2.8.62,1.12,0,1.96-.15,2.53-.45.57-.3.85-.74.85-1.32,0-.47-.19-.84-.56-1.11-.37-.27-.97-.46-1.78-.57l-2.29-.32c-1.86-.25-3.21-.71-4.07-1.38s-1.29-1.6-1.29-2.81c0-.81.25-1.52.76-2.12.51-.6,1.25-1.06,2.22-1.38.97-.32,2.13-.49,3.48-.49,1.86,0,3.29.31,4.31.92,1.02.62,1.68,1.59,2,2.91l-2.96.34Z"/><path class="cls-1" d="m153.71,36.83l-1.35-3.09h-6.86l-1.33,3.09h-3.15l6.23-13.61h3.45l6.23,13.61h-3.22Zm-4.79-10.96l-2.4,5.45h4.8l-2.4-5.45Z"/><path class="cls-1" d="m168.32,23.22h3.05v7.89c0,2.03-.55,3.55-1.65,4.56-1.1,1-2.77,1.51-5.02,1.51s-3.92-.5-5.02-1.51c-1.1-1-1.65-2.52-1.65-4.56v-7.89h3.05v8.06c0,1.17.29,2.03.88,2.57.58.55,1.5.82,2.75.82s2.16-.27,2.75-.82c.58-.55.88-1.4.88-2.57v-8.06Zm-5.6-1.12l2.92-2.84h3.47l-3.53,2.84h-2.86Z"/><path class="cls-1" d="m174.57,36.83v-13.61h6.1c2.61,0,4.59.58,5.96,1.74,1.37,1.16,2.05,2.85,2.05,5.06s-.72,3.85-2.16,5.03c-1.44,1.18-3.49,1.77-6.15,1.77h-5.8Zm5.93-2.54c1.66,0,2.92-.36,3.77-1.09.84-.72,1.27-1.79,1.27-3.2,0-2.83-1.59-4.25-4.77-4.25h-3.16v8.54h2.9Z"/><path class="cls-1" d="m191.19,36.83v-13.61h11.4v2.5h-8.35v2.86h7.95v2.5h-7.95v3.26h8.77l-.38,2.5h-11.44Z"/></g></g></svg>